<svg width="349" height="550" viewBox="0 0 349 550" fill="none" xmlns="http://www.w3.org/2000/svg">
<path fill-rule="evenodd" clip-rule="evenodd" d="M324.187 0L301.481 0C299.241 10.2403 289.793 17.9284 278.477 17.9284C267.16 17.9284 257.712 10.2403 255.472 0L232.766 0C230.526 10.2403 221.078 17.9284 209.762 17.9284C198.446 17.9284 188.997 10.2403 186.757 0L164.051 0C161.811 10.2403 152.363 17.9284 141.047 17.9284C129.731 17.9284 120.282 10.2403 118.042 0L95.3359 0C93.0962 10.2403 83.6476 17.9284 72.3316 17.9284C61.0156 17.9284 51.567 10.2403 49.3273 0L26.6209 0C24.3811 10.2403 14.9326 17.9284 3.61654 17.9284C2.38668 17.9284 1.17888 17.8376 0 17.6626L0 549.772H349L349 17.8626C348.403 17.9062 347.8 17.9284 347.192 17.9284C335.876 17.9284 326.427 10.2403 324.187 0Z" fill="url(#paint0_linear_239_992)"/>
<defs>
<linearGradient id="paint0_linear_239_992" x1="174.97" y1="-15.081" x2="173.971" y2="549.771" gradientUnits="userSpaceOnUse">
<stop stop-color="#674290"/>
<stop offset="1" stop-color="#36308F"/>
</linearGradient>
</defs>
</svg>
