<svg width="202" height="169" viewBox="0 0 202 169" fill="none" xmlns="http://www.w3.org/2000/svg">
<mask id="mask0_439_1034" style="mask-type:alpha" maskUnits="userSpaceOnUse" x="0" y="0" width="202" height="161">
<path d="M202 22.54C202 14.5671 202 10.5807 200.424 7.54636C199.096 4.98935 197.011 2.90447 194.454 1.57621C191.419 0 187.433 0 179.46 0H22.54C14.5671 0 10.5807 0 7.54636 1.57621C4.98935 2.90447 2.90447 4.98935 1.57621 7.54636C0 10.5807 0 14.5671 0 22.54V138.46C0 146.433 0 150.419 1.57621 153.454C2.90447 156.011 4.98935 158.096 7.54636 159.424C10.5807 161 14.5671 161 22.54 161H179.46C187.433 161 191.419 161 194.454 159.424C197.011 158.096 199.096 156.011 200.424 153.454C202 150.419 202 146.433 202 138.46V22.54Z" fill="url(#paint0_linear_439_1034)"/>
</mask>
<g mask="url(#mask0_439_1034)">
<path fill-rule="evenodd" clip-rule="evenodd" d="M45.7235 27.7955L54.8744 29.3383C54.2259 34.4524 57.8899 39.2416 63.2231 40.1407C68.5563 41.0398 73.588 37.7166 74.6521 32.6726L83.8029 34.2153C83.1545 39.3294 86.8185 44.1187 92.1517 45.0178C97.4848 45.9169 102.517 42.5937 103.581 37.5496L112.731 39.0924C112.083 44.2065 115.747 48.9957 121.08 49.8948C126.413 50.794 131.445 47.4707 132.509 42.4267L141.66 43.9694C141.012 49.0835 144.676 53.8728 150.009 54.7719C155.342 55.671 160.374 52.3478 161.438 47.3037L170.589 48.8465C169.94 53.9606 173.604 58.7498 178.937 59.649C179.455 59.7362 179.97 59.7837 180.479 59.7937L148.374 250.225L1.44738 225.455L33.5379 35.1076C33.7861 35.1683 34.0384 35.2205 34.2946 35.2637C39.6277 36.1628 44.6594 32.8395 45.7235 27.7955Z" fill="url(#paint1_linear_439_1034)"/>
<path fill-rule="evenodd" clip-rule="evenodd" d="M19.8004 4H29.0804C29.2912 9.15073 33.7004 13.2642 39.1088 13.2642C44.5172 13.2642 48.9265 9.15073 49.1372 4H58.4172C58.628 9.15073 63.0372 13.2642 68.4456 13.2642C73.854 13.2642 78.2633 9.15073 78.474 4H87.754C87.9647 9.15073 92.374 13.2642 97.7824 13.2642C103.191 13.2642 107.6 9.15073 107.811 4H117.091C117.302 9.15073 121.711 13.2642 127.119 13.2642C132.528 13.2642 136.937 9.15073 137.148 4H146.428C146.638 9.15073 151.048 13.2642 156.456 13.2642C156.981 13.2642 157.497 13.2255 158 13.1507V206.269H9V13.2361C9.25481 13.2547 9.51227 13.2642 9.77203 13.2642C15.1805 13.2642 19.5897 9.15073 19.8004 4Z" fill="url(#paint2_linear_439_1034)"/>
<path d="M39.832 123.888H34.24V126.912H39.544V130.896H34.24V134.016H39.832V138H29.536V119.904H39.832V123.888ZM56.0993 125.688V138H51.7313V136.632H51.6833C51.3313 137.208 50.8513 137.64 50.2433 137.928C49.6353 138.2 49.0033 138.352 48.3473 138.384C48.2833 138.4 48.2193 138.408 48.1553 138.408C48.0913 138.408 48.0273 138.408 47.9633 138.408C46.1393 138.408 44.6433 137.76 43.4753 136.464C42.3233 135.152 41.7473 133.616 41.7473 131.856C41.7473 130.096 42.3153 128.568 43.4513 127.272C44.6033 125.96 46.0913 125.304 47.9153 125.304C47.9953 125.304 48.0753 125.304 48.1553 125.304C48.2353 125.304 48.3153 125.312 48.3953 125.328C49.0193 125.376 49.6273 125.536 50.2193 125.808C50.8273 126.064 51.3313 126.432 51.7313 126.912V125.688H56.0993ZM49.0673 129.072C48.1873 129.088 47.4993 129.376 47.0033 129.936C46.5073 130.48 46.2593 131.128 46.2593 131.88C46.2593 132.664 46.5073 133.32 47.0033 133.848C47.4993 134.376 48.1873 134.64 49.0673 134.64C49.9633 134.64 50.6513 134.376 51.1313 133.848C51.6273 133.32 51.8753 132.664 51.8753 131.88C51.8753 131.128 51.6273 130.48 51.1313 129.936C50.6513 129.376 49.9633 129.096 49.0673 129.096V129.072ZM63.7707 129.288V138H59.4027V129.288H57.9867V125.688H59.4027V121.992H63.7707V125.688H66.2427V129.288H63.7707ZM75.6111 134.016H81.5391V138H66.9951L74.3871 129.96C74.9151 129.4 75.3871 128.736 75.8031 127.968C76.2351 127.184 76.4511 126.376 76.4511 125.544C76.4511 125.528 76.4511 125.512 76.4511 125.496C76.4511 125.464 76.4511 125.432 76.4511 125.4C76.4191 124.856 76.2191 124.352 75.8511 123.888C75.4831 123.424 74.9951 123.192 74.3871 123.192C73.7471 123.192 73.2591 123.408 72.9231 123.84C72.5871 124.272 72.4191 124.792 72.4191 125.4C72.4191 125.512 72.4271 125.64 72.4431 125.784C72.4591 125.912 72.4751 126.04 72.4911 126.168L67.3071 126.144C67.3871 124.08 68.0511 122.408 69.2991 121.128C70.5471 119.848 72.2351 119.208 74.3631 119.208C76.2671 119.208 77.9071 119.792 79.2831 120.96C80.6591 122.112 81.3471 123.672 81.3471 125.64C81.3471 126.76 81.1551 127.712 80.7711 128.496C80.3871 129.28 79.8351 130.032 79.1151 130.752C79.0031 130.864 78.8911 130.976 78.7791 131.088C78.6671 131.2 78.5471 131.312 78.4191 131.424L75.6111 134.016ZM94.4883 123.888H88.8963V126.912H94.2003V130.896H88.8963V134.016H94.4883V138H84.1923V119.904H94.4883V123.888ZM110.756 125.688V138H106.388V136.632H106.34C105.988 137.208 105.508 137.64 104.9 137.928C104.292 138.2 103.66 138.352 103.004 138.384C102.94 138.4 102.876 138.408 102.812 138.408C102.748 138.408 102.684 138.408 102.62 138.408C100.796 138.408 99.2996 137.76 98.1316 136.464C96.9796 135.152 96.4036 133.616 96.4036 131.856C96.4036 130.096 96.9716 128.568 98.1076 127.272C99.2596 125.96 100.748 125.304 102.572 125.304C102.652 125.304 102.732 125.304 102.812 125.304C102.892 125.304 102.972 125.312 103.052 125.328C103.676 125.376 104.284 125.536 104.876 125.808C105.484 126.064 105.988 126.432 106.388 126.912V125.688H110.756ZM103.724 129.072C102.844 129.088 102.156 129.376 101.66 129.936C101.164 130.48 100.916 131.128 100.916 131.88C100.916 132.664 101.164 133.32 101.66 133.848C102.156 134.376 102.844 134.64 103.724 134.64C104.62 134.64 105.308 134.376 105.788 133.848C106.284 133.32 106.532 132.664 106.532 131.88C106.532 131.128 106.284 130.48 105.788 129.936C105.308 129.376 104.62 129.096 103.724 129.096V129.072ZM118.019 125.688V127.704H118.067C118.483 126.968 119.035 126.424 119.723 126.072C120.427 125.72 121.203 125.544 122.051 125.544L122.891 125.52V129.72C122.827 129.704 122.763 129.68 122.699 129.648C122.651 129.616 122.595 129.592 122.531 129.576C122.291 129.48 122.051 129.416 121.811 129.384C121.571 129.352 121.315 129.336 121.043 129.336C119.827 129.336 119.019 129.696 118.619 130.416C118.219 131.12 118.019 132 118.019 133.056V138H113.651V125.688H118.019ZM128.894 125.688V127.272H128.942C129.454 126.536 130.022 126.024 130.646 125.736C131.286 125.448 132.03 125.304 132.878 125.304C134.542 125.304 135.726 125.776 136.43 126.72C137.15 127.664 137.51 128.896 137.51 130.416V138H133.142V132C133.142 131.968 133.142 131.928 133.142 131.88C133.142 131.832 133.142 131.784 133.142 131.736C133.142 131.592 133.142 131.44 133.142 131.28C133.142 131.12 133.134 130.96 133.118 130.8C133.086 130.304 132.942 129.848 132.686 129.432C132.43 129 131.926 128.784 131.174 128.784C130.294 128.784 129.694 129.072 129.374 129.648C129.054 130.208 128.894 130.872 128.894 131.64V138H124.526V125.688H128.894Z" fill="url(#paint3_linear_439_1034)"/>
</g>
<defs>
<linearGradient id="paint0_linear_439_1034" x1="202" y1="0" x2="-22.2573" y2="41.9138" gradientUnits="userSpaceOnUse">
<stop stop-color="#FFFCFC"/>
<stop offset="1" stop-color="#D2D2D2"/>
<stop offset="1.0001" stop-color="#AC9169"/>
</linearGradient>
<linearGradient id="paint1_linear_439_1034" x1="108.537" y1="38.3852" x2="74.9107" y2="237.84" gradientUnits="userSpaceOnUse">
<stop stop-color="#B8B4FF"/>
<stop offset="0.5" stop-color="#E5D6FF"/>
<stop offset="1" stop-color="#FFD3C5"/>
</linearGradient>
<linearGradient id="paint2_linear_439_1034" x1="83.5" y1="4" x2="83.5" y2="206.269" gradientUnits="userSpaceOnUse">
<stop stop-color="#C90091"/>
<stop offset="1" stop-color="#7428AF"/>
</linearGradient>
<linearGradient id="paint3_linear_439_1034" x1="98.0234" y1="96" x2="100.433" y2="175.506" gradientUnits="userSpaceOnUse">
<stop offset="0.34" stop-color="#FFFFFA"/>
<stop offset="1.0001" stop-color="#999996"/>
</linearGradient>
</defs>
</svg>
