<svg width="202" height="169" viewBox="0 0 202 169" fill="none" xmlns="http://www.w3.org/2000/svg">
<mask id="mask0_406_650" style="mask-type:alpha" maskUnits="userSpaceOnUse" x="0" y="0" width="202" height="161">
<path d="M0 22.54C0 14.5671 0 10.5807 1.57621 7.54636C2.90447 4.98935 4.98935 2.90447 7.54636 1.57621C10.5807 0 14.5671 0 22.54 0H179.46C187.433 0 191.419 0 194.454 1.57621C197.011 2.90447 199.096 4.98935 200.424 7.54636C202 10.5807 202 14.5671 202 22.54V138.46C202 146.433 202 150.419 200.424 153.454C199.096 156.011 197.011 158.096 194.454 159.424C191.419 161 187.433 161 179.46 161H22.54C14.5671 161 10.5807 161 7.54636 159.424C4.98935 158.096 2.90447 156.011 1.57621 153.454C0 150.419 0 146.433 0 138.46V22.54Z" fill="url(#paint0_linear_406_650)"/>
</mask>
<g mask="url(#mask0_406_650)">
<path fill-rule="evenodd" clip-rule="evenodd" d="M142.276 27.7955L133.126 29.3383C133.774 34.4524 130.11 39.2416 124.777 40.1407C119.444 41.0398 114.412 37.7166 113.348 32.6726L104.197 34.2153C104.846 39.3294 101.181 44.1187 95.8483 45.0178C90.5152 45.9169 85.4835 42.5937 84.4194 37.5496L75.2685 39.0924C75.917 44.2065 72.2529 48.9957 66.9198 49.8948C61.5866 50.794 56.5549 47.4707 55.4908 42.4267L46.3399 43.9694C46.9884 49.0835 43.3244 53.8728 37.9912 54.7719C32.6581 55.671 27.6263 52.3478 26.5623 47.3037L17.4114 48.8465C18.0599 53.9606 14.3958 58.7498 9.06267 59.649C8.54491 59.7362 8.02998 59.7837 7.52125 59.7937L39.626 250.225L186.553 225.455L154.462 35.1076C154.214 35.1683 153.962 35.2205 153.705 35.2637C148.372 36.1628 143.341 32.8395 142.276 27.7955Z" fill="url(#paint1_linear_406_650)"/>
<path fill-rule="evenodd" clip-rule="evenodd" d="M182.2 4H172.92C172.709 9.15073 168.3 13.2642 162.891 13.2642C157.483 13.2642 153.074 9.15073 152.863 4H143.583C143.372 9.15073 138.963 13.2642 133.554 13.2642C128.146 13.2642 123.737 9.15073 123.526 4H114.246C114.035 9.15073 109.626 13.2642 104.218 13.2642C98.8092 13.2642 94.4 9.15073 94.1892 4H84.9092C84.6985 9.15073 80.2892 13.2642 74.8808 13.2642C69.4724 13.2642 65.0632 9.15073 64.8524 4H55.5724C55.3617 9.15073 50.9525 13.2642 45.544 13.2642C45.019 13.2642 44.5033 13.2255 44 13.1507V206.269H193V13.2361C192.745 13.2547 192.488 13.2642 192.228 13.2642C186.82 13.2642 182.41 9.15073 182.2 4Z" fill="url(#paint2_linear_406_650)"/>
<path d="M75.248 127.896H84.584C84.568 129.224 84.456 130.472 84.248 131.64C84.04 132.792 83.536 133.936 82.736 135.072C81.856 136.304 80.768 137.2 79.472 137.76C78.192 138.32 76.792 138.6 75.272 138.6C72.424 138.6 70.104 137.728 68.312 135.984C66.52 134.224 65.624 131.92 65.624 129.072C65.624 126.128 66.528 123.768 68.336 121.992C70.16 120.216 72.528 119.328 75.44 119.328C77.296 119.328 78.92 119.752 80.312 120.6C81.72 121.432 82.816 122.696 83.6 124.392L79.136 126.24C78.816 125.392 78.32 124.704 77.648 124.176C76.976 123.648 76.168 123.384 75.224 123.384C73.768 123.384 72.64 123.928 71.84 125.016C71.056 126.104 70.624 127.296 70.544 128.592C70.528 128.672 70.52 128.76 70.52 128.856C70.52 128.936 70.52 129.016 70.52 129.096C70.52 129.112 70.52 129.136 70.52 129.168C70.52 129.184 70.52 129.208 70.52 129.24C70.552 130.616 70.976 131.88 71.792 133.032C72.608 134.184 73.776 134.76 75.296 134.76C76.32 134.76 77.184 134.496 77.888 133.968C78.592 133.44 78.992 132.656 79.088 131.616L75.248 131.592V127.896ZM95.8351 119.304C98.4431 119.32 100.763 120.2 102.795 121.944C104.827 123.672 105.843 125.904 105.843 128.64C105.843 131.568 104.899 133.96 103.011 135.816C101.139 137.672 98.7471 138.6 95.8351 138.6C92.9391 138.6 90.5471 137.672 88.6591 135.816C86.7711 133.96 85.8271 131.568 85.8271 128.64C85.8271 125.904 86.8431 123.672 88.8751 121.944C90.9071 120.2 93.2271 119.328 95.8351 119.328V119.304ZM95.8351 123.864C94.4271 123.88 93.2191 124.376 92.2111 125.352C91.2191 126.312 90.7231 127.416 90.7231 128.664C90.7231 130.216 91.2191 131.504 92.2111 132.528C93.2191 133.552 94.4271 134.064 95.8351 134.064C97.2431 134.064 98.4431 133.552 99.4351 132.528C100.443 131.504 100.947 130.216 100.947 128.664C100.947 127.416 100.443 126.312 99.4351 125.352C98.4431 124.376 97.2431 123.888 95.8351 123.888V123.864ZM120.927 129.312L114.255 119.904H119.895L123.279 124.824L126.663 119.904H132.303L125.631 129.312V138H120.927V129.312ZM142.476 119.304C145.084 119.32 147.404 120.2 149.436 121.944C151.468 123.672 152.484 125.904 152.484 128.64C152.484 131.568 151.54 133.96 149.652 135.816C147.78 137.672 145.388 138.6 142.476 138.6C139.58 138.6 137.188 137.672 135.3 135.816C133.412 133.96 132.468 131.568 132.468 128.64C132.468 125.904 133.484 123.672 135.516 121.944C137.548 120.2 139.868 119.328 142.476 119.328V119.304ZM142.476 123.864C141.068 123.88 139.86 124.376 138.852 125.352C137.86 126.312 137.364 127.416 137.364 128.664C137.364 130.216 137.86 131.504 138.852 132.528C139.86 133.552 141.068 134.064 142.476 134.064C143.884 134.064 145.084 133.552 146.076 132.528C147.084 131.504 147.588 130.216 147.588 128.664C147.588 127.416 147.084 126.312 146.076 125.352C145.084 124.376 143.884 123.888 142.476 123.888V123.864ZM165.653 119.904H170.357V130.08C170.357 131.264 170.261 132.408 170.069 133.512C169.893 134.616 169.357 135.608 168.461 136.488C167.885 137.064 167.197 137.504 166.397 137.808C165.613 138.096 164.805 138.288 163.973 138.384C163.717 138.416 163.461 138.44 163.205 138.456C162.949 138.472 162.701 138.48 162.461 138.48C162.221 138.48 161.973 138.472 161.717 138.456C161.461 138.44 161.205 138.416 160.949 138.384C160.117 138.288 159.301 138.096 158.501 137.808C157.717 137.504 157.037 137.064 156.461 136.488C155.565 135.608 155.021 134.616 154.829 133.512C154.653 132.408 154.565 131.272 154.565 130.104V119.904H159.269V129.432C159.269 129.544 159.269 129.648 159.269 129.744C159.269 129.824 159.269 129.912 159.269 130.008C159.285 131.096 159.469 132.096 159.821 133.008C160.189 133.92 161.069 134.376 162.461 134.376C163.853 134.376 164.725 133.92 165.077 133.008C165.445 132.096 165.637 131.096 165.653 130.008C165.653 129.912 165.653 129.824 165.653 129.744C165.653 129.648 165.653 129.552 165.653 129.456V119.904Z" fill="url(#paint3_linear_406_650)"/>
</g>
<defs>
<linearGradient id="paint0_linear_406_650" x1="0" y1="0" x2="224.257" y2="41.9138" gradientUnits="userSpaceOnUse">
<stop stop-color="#FFFCFC"/>
<stop offset="1" stop-color="#D2D2D2"/>
<stop offset="1.0001" stop-color="#AC9169"/>
</linearGradient>
<linearGradient id="paint1_linear_406_650" x1="79.4633" y1="38.3852" x2="113.089" y2="237.84" gradientUnits="userSpaceOnUse">
<stop stop-color="#FFFBFB"/>
<stop offset="1" stop-color="#999696"/>
</linearGradient>
<linearGradient id="paint2_linear_406_650" x1="44" y1="11.9463" x2="210.888" y2="28.7647" gradientUnits="userSpaceOnUse">
<stop stop-color="#FF5348"/>
<stop offset="1" stop-color="#BD3A28"/>
</linearGradient>
<linearGradient id="paint3_linear_406_650" x1="132.5" y1="96" x2="135" y2="175.5" gradientUnits="userSpaceOnUse">
<stop offset="0.34" stop-color="#FFFFFA"/>
<stop offset="1.0001" stop-color="#999996"/>
</linearGradient>
</defs>
</svg>
