<svg width="202" height="169" viewBox="0 0 202 169" fill="none" xmlns="http://www.w3.org/2000/svg">
<mask id="mask0_406_650" style="mask-type:alpha" maskUnits="userSpaceOnUse" x="0" y="0" width="202" height="161">
<path d="M0 22.54C0 14.5671 0 10.5807 1.57621 7.54636C2.90447 4.98935 4.98935 2.90447 7.54636 1.57621C10.5807 0 14.5671 0 22.54 0H179.46C187.433 0 191.419 0 194.454 1.57621C197.011 2.90447 199.096 4.98935 200.424 7.54636C202 10.5807 202 14.5671 202 22.54V138.46C202 146.433 202 150.419 200.424 153.454C199.096 156.011 197.011 158.096 194.454 159.424C191.419 161 187.433 161 179.46 161H22.54C14.5671 161 10.5807 161 7.54636 159.424C4.98935 158.096 2.90447 156.011 1.57621 153.454C0 150.419 0 146.433 0 138.46V22.54Z" fill="url(#paint0_linear_406_650)"/>
</mask>
<g mask="url(#mask0_406_650)">
<path fill-rule="evenodd" clip-rule="evenodd" d="M142.276 27.7955L133.126 29.3383C133.774 34.4524 130.11 39.2416 124.777 40.1407C119.444 41.0398 114.412 37.7166 113.348 32.6726L104.197 34.2153C104.846 39.3294 101.181 44.1187 95.8483 45.0178C90.5152 45.9169 85.4835 42.5937 84.4194 37.5496L75.2685 39.0924C75.917 44.2065 72.2529 48.9957 66.9198 49.8948C61.5866 50.794 56.5549 47.4707 55.4908 42.4267L46.3399 43.9694C46.9884 49.0835 43.3244 53.8728 37.9912 54.7719C32.6581 55.671 27.6263 52.3478 26.5623 47.3037L17.4114 48.8465C18.0599 53.9606 14.3958 58.7498 9.06267 59.649C8.54491 59.7362 8.02998 59.7837 7.52125 59.7937L39.626 250.225L186.553 225.455L154.462 35.1076C154.214 35.1683 153.962 35.2205 153.705 35.2637C148.372 36.1628 143.341 32.8395 142.276 27.7955Z" fill="url(#paint1_linear_406_650)"/>
<path fill-rule="evenodd" clip-rule="evenodd" d="M182.2 4H172.92C172.709 9.15073 168.3 13.2642 162.891 13.2642C157.483 13.2642 153.074 9.15073 152.863 4H143.583C143.372 9.15073 138.963 13.2642 133.554 13.2642C128.146 13.2642 123.737 9.15073 123.526 4H114.246C114.035 9.15073 109.626 13.2642 104.218 13.2642C98.8092 13.2642 94.4 9.15073 94.1892 4H84.9092C84.6985 9.15073 80.2892 13.2642 74.8808 13.2642C69.4724 13.2642 65.0632 9.15073 64.8524 4H55.5724C55.3617 9.15073 50.9525 13.2642 45.544 13.2642C45.019 13.2642 44.5033 13.2255 44 13.1507V206.269H193V13.2361C192.745 13.2547 192.488 13.2642 192.228 13.2642C186.82 13.2642 182.41 9.15073 182.2 4Z" fill="url(#paint2_linear_406_650)"/>
<path d="M70.248 127.896H79.584C79.568 129.224 79.456 130.472 79.248 131.64C79.04 132.792 78.536 133.936 77.736 135.072C76.856 136.304 75.768 137.2 74.472 137.76C73.192 138.32 71.792 138.6 70.272 138.6C67.424 138.6 65.104 137.728 63.312 135.984C61.52 134.224 60.624 131.92 60.624 129.072C60.624 126.128 61.528 123.768 63.336 121.992C65.16 120.216 67.528 119.328 70.44 119.328C72.296 119.328 73.92 119.752 75.312 120.6C76.72 121.432 77.816 122.696 78.6 124.392L74.136 126.24C73.816 125.392 73.32 124.704 72.648 124.176C71.976 123.648 71.168 123.384 70.224 123.384C68.768 123.384 67.64 123.928 66.84 125.016C66.056 126.104 65.624 127.296 65.544 128.592C65.528 128.672 65.52 128.76 65.52 128.856C65.52 128.936 65.52 129.016 65.52 129.096C65.52 129.112 65.52 129.136 65.52 129.168C65.52 129.184 65.52 129.208 65.52 129.24C65.552 130.616 65.976 131.88 66.792 133.032C67.608 134.184 68.776 134.76 70.296 134.76C71.32 134.76 72.184 134.496 72.888 133.968C73.592 133.44 73.992 132.656 74.088 131.616L70.248 131.592V127.896ZM90.8351 119.304C93.4431 119.32 95.7631 120.2 97.7951 121.944C99.8271 123.672 100.843 125.904 100.843 128.64C100.843 131.568 99.8991 133.96 98.0111 135.816C96.1391 137.672 93.7471 138.6 90.8351 138.6C87.9391 138.6 85.5471 137.672 83.6591 135.816C81.7711 133.96 80.8271 131.568 80.8271 128.64C80.8271 125.904 81.8431 123.672 83.8751 121.944C85.9071 120.2 88.2271 119.328 90.8351 119.328V119.304ZM90.8351 123.864C89.4271 123.88 88.2191 124.376 87.2111 125.352C86.2191 126.312 85.7231 127.416 85.7231 128.664C85.7231 130.216 86.2191 131.504 87.2111 132.528C88.2191 133.552 89.4271 134.064 90.8351 134.064C92.2431 134.064 93.4431 133.552 94.4351 132.528C95.4431 131.504 95.9471 130.216 95.9471 128.664C95.9471 127.416 95.4431 126.312 94.4351 125.352C93.4431 124.376 92.2431 123.888 90.8351 123.888V123.864ZM115.927 129.312L109.255 119.904H114.895L118.279 124.824L121.663 119.904H127.303L120.631 129.312V138H115.927V129.312ZM137.476 119.304C140.084 119.32 142.404 120.2 144.436 121.944C146.468 123.672 147.484 125.904 147.484 128.64C147.484 131.568 146.54 133.96 144.652 135.816C142.78 137.672 140.388 138.6 137.476 138.6C134.58 138.6 132.188 137.672 130.3 135.816C128.412 133.96 127.468 131.568 127.468 128.64C127.468 125.904 128.484 123.672 130.516 121.944C132.548 120.2 134.868 119.328 137.476 119.328V119.304ZM137.476 123.864C136.068 123.88 134.86 124.376 133.852 125.352C132.86 126.312 132.364 127.416 132.364 128.664C132.364 130.216 132.86 131.504 133.852 132.528C134.86 133.552 136.068 134.064 137.476 134.064C138.884 134.064 140.084 133.552 141.076 132.528C142.084 131.504 142.588 130.216 142.588 128.664C142.588 127.416 142.084 126.312 141.076 125.352C140.084 124.376 138.884 123.888 137.476 123.888V123.864ZM160.653 119.904H165.357V130.08C165.357 131.264 165.261 132.408 165.069 133.512C164.893 134.616 164.357 135.608 163.461 136.488C162.885 137.064 162.197 137.504 161.397 137.808C160.613 138.096 159.805 138.288 158.973 138.384C158.717 138.416 158.461 138.44 158.205 138.456C157.949 138.472 157.701 138.48 157.461 138.48C157.221 138.48 156.973 138.472 156.717 138.456C156.461 138.44 156.205 138.416 155.949 138.384C155.117 138.288 154.301 138.096 153.501 137.808C152.717 137.504 152.037 137.064 151.461 136.488C150.565 135.608 150.021 134.616 149.829 133.512C149.653 132.408 149.565 131.272 149.565 130.104V119.904H154.269V129.432C154.269 129.544 154.269 129.648 154.269 129.744C154.269 129.824 154.269 129.912 154.269 130.008C154.285 131.096 154.469 132.096 154.821 133.008C155.189 133.92 156.069 134.376 157.461 134.376C158.853 134.376 159.725 133.92 160.077 133.008C160.445 132.096 160.637 131.096 160.653 130.008C160.653 129.912 160.653 129.824 160.653 129.744C160.653 129.648 160.653 129.552 160.653 129.456V119.904ZM171.413 132.864C172.197 132.88 172.861 133.16 173.405 133.704C173.949 134.248 174.221 134.912 174.221 135.696C174.221 136.464 173.949 137.12 173.405 137.664C172.861 138.208 172.197 138.48 171.413 138.48C170.629 138.48 169.965 138.208 169.421 137.664C168.877 137.12 168.605 136.464 168.605 135.696C168.605 134.912 168.877 134.248 169.421 133.704C169.965 133.16 170.629 132.888 171.413 132.888V132.864ZM169.157 131.856V119.904H173.693V131.856H169.157Z" fill="url(#paint3_linear_406_650)"/>
</g>
<defs>
<linearGradient id="paint0_linear_406_650" x1="0" y1="0" x2="224.257" y2="41.9138" gradientUnits="userSpaceOnUse">
<stop stop-color="#FFFCFC"/>
<stop offset="1" stop-color="#D2D2D2"/>
<stop offset="1.0001" stop-color="#AC9169"/>
</linearGradient>
<linearGradient id="paint1_linear_406_650" x1="79.4633" y1="38.3852" x2="113.089" y2="237.84" gradientUnits="userSpaceOnUse">
<stop stop-color="#FFFBFB"/>
<stop offset="1" stop-color="#999696"/>
</linearGradient>
<linearGradient id="paint2_linear_406_650" x1="44" y1="11.9463" x2="210.888" y2="28.7647" gradientUnits="userSpaceOnUse">
<stop stop-color="#FF5348"/>
<stop offset="1" stop-color="#BD3A28"/>
</linearGradient>
<linearGradient id="paint3_linear_406_650" x1="133.808" y1="96" x2="136.095" y2="175.513" gradientUnits="userSpaceOnUse">
<stop offset="0.34" stop-color="#FFFFFA"/>
<stop offset="1.0001" stop-color="#999996"/>
</linearGradient>
</defs>
</svg>
