<svg width="187" height="163" viewBox="0 0 187 163" fill="none" xmlns="http://www.w3.org/2000/svg">
<mask id="mask0_197_746" style="mask-type:alpha" maskUnits="userSpaceOnUse" x="0" y="0" width="187" height="163">
<path d="M0 0H187V163H0V0Z" fill="url(#paint0_linear_197_746)"/>
</mask>
<g mask="url(#mask0_197_746)">
<path fill-rule="evenodd" clip-rule="evenodd" d="M137.276 29.7955L128.126 31.3383C128.774 36.4524 125.11 41.2416 119.777 42.1407C114.444 43.0398 109.412 39.7166 108.348 34.6726L99.1971 36.2153C99.8455 41.3294 96.1815 46.1187 90.8483 47.0178C85.5152 47.9169 80.4835 44.5937 79.4194 39.5496L70.2685 41.0924C70.917 46.2065 67.2529 50.9957 61.9198 51.8948C56.5866 52.794 51.5549 49.4707 50.4908 44.4267L41.3399 45.9694C41.9884 51.0835 38.3244 55.8728 32.9912 56.7719C27.6581 57.671 22.6263 54.3478 21.5623 49.3037L12.4114 50.8465C13.0599 55.9606 9.39584 60.7498 4.06267 61.649C3.54491 61.7362 3.02998 61.7837 2.52125 61.7937L34.626 252.225L181.553 227.455L149.462 37.1076C149.214 37.1683 148.962 37.2205 148.705 37.2637C143.372 38.1628 138.341 34.8395 137.276 29.7955Z" fill="url(#paint1_linear_197_746)"/>
<path fill-rule="evenodd" clip-rule="evenodd" d="M177.2 6H167.92C167.709 11.1507 163.3 15.2642 157.891 15.2642C152.483 15.2642 148.074 11.1507 147.863 6H138.583C138.372 11.1507 133.963 15.2642 128.554 15.2642C123.146 15.2642 118.737 11.1507 118.526 6H109.246C109.035 11.1507 104.626 15.2642 99.2176 15.2642C93.8092 15.2642 89.4 11.1507 89.1892 6H79.9092C79.6985 11.1507 75.2892 15.2642 69.8808 15.2642C64.4724 15.2642 60.0632 11.1507 59.8524 6H50.5724C50.3617 11.1507 45.9525 15.2642 40.544 15.2642C40.019 15.2642 39.5033 15.2255 39 15.1507V208.269H188V15.2361C187.745 15.2547 187.488 15.2642 187.228 15.2642C181.82 15.2642 177.41 11.1507 177.2 6Z" fill="url(#paint2_linear_197_746)"/>
</g>
<defs>
<linearGradient id="paint0_linear_197_746" x1="0" y1="0" x2="208.759" y2="35.6768" gradientUnits="userSpaceOnUse">
<stop stop-color="#FFFCFC"/>
<stop offset="1" stop-color="#D2D2D2"/>
<stop offset="1.0001" stop-color="#AC9169"/>
</linearGradient>
<linearGradient id="paint1_linear_197_746" x1="74.4633" y1="40.3852" x2="108.089" y2="239.84" gradientUnits="userSpaceOnUse">
<stop stop-color="#FFFBFB"/>
<stop offset="1" stop-color="#999696"/>
</linearGradient>
<linearGradient id="paint2_linear_197_746" x1="39" y1="13.9463" x2="205.888" y2="30.7647" gradientUnits="userSpaceOnUse">
<stop stop-color="#FF5348"/>
<stop offset="1" stop-color="#BD3A28"/>
</linearGradient>
</defs>
</svg>
